<svg width="4977" height="1484" xmlns="http://www.w3.org/2000/svg" xmlns:xlink="http://www.w3.org/1999/xlink" overflow="hidden"><defs><clipPath id="clip0"><rect x="1776" y="1641" width="4977" height="1484"/></clipPath></defs><g clip-path="url(#clip0)" transform="translate(-1776 -1641)"><path d="M2542.74 2266.48 2567.75 2266.48C2644.83 2266.48 2710.05 2317.22 2731.8 2387.12L2734.4 2397.23 2747.35 2405.1C2838.74 2466.81 2898.83 2571.32 2898.83 2689.86L2898.83 2805.02 2908.54 2810.91C2954.24 2841.77 2984.28 2894.03 2984.28 2953.29 2984.28 3048.12 2907.37 3125 2812.5 3125L2727.77 3125C2668.48 3125 2616.21 3094.97 2585.34 3049.3L2576.63 3033.27 2535.37 3033.27 2526.66 3049.3C2495.79 3094.97 2443.52 3125 2384.23 3125L2299.5 3125C2204.63 3125 2127.72 3048.12 2127.72 2953.29 2127.72 2894.03 2157.76 2841.77 2203.46 2810.91L2211.65 2805.94 2211.65 2689.86C2211.65 2571.32 2271.74 2466.81 2363.14 2405.1L2376.09 2397.23 2378.69 2387.12C2400.44 2317.22 2465.66 2266.48 2542.74 2266.48ZM3205.22 2005.19C3229.56 2004.99 3252.55 2010.81 3272.68 2023.34 3353.21 2073.47 3357.5 2212 3282.27 2332.74 3207.04 2453.48 3080.78 2510.72 3000.25 2460.59 2919.72 2410.46 2915.43 2271.94 2990.66 2151.2 3047.08 2060.64 3132.21 2005.8 3205.22 2005.19ZM1906.78 2005.19C1979.79 2005.8 2064.92 2060.64 2121.34 2151.2 2196.57 2271.94 2192.28 2410.46 2111.75 2460.59 2031.22 2510.72 1904.96 2453.48 1829.73 2332.74 1754.5 2212 1758.79 2073.47 1839.32 2023.34 1859.45 2010.81 1882.44 2004.99 1906.78 2005.19ZM2784.44 1641C2879.31 1641 2956.21 1756.31 2956.21 1898.56 2956.21 2040.8 2879.31 2156.11 2784.44 2156.11 2689.57 2156.11 2612.67 2040.8 2612.67 1898.56 2612.67 1756.31 2689.57 1641 2784.44 1641ZM2327.56 1641C2422.43 1641 2499.33 1756.31 2499.33 1898.56 2499.33 2040.8 2422.43 2156.11 2327.56 2156.11 2232.69 2156.11 2155.79 2040.8 2155.79 1898.56 2155.79 1756.31 2232.69 1641 2327.56 1641Z" fill="#EFFF80" fill-rule="evenodd"/><text fill="#EFFF80" font-family="Conformity,Conformity_MSFontService,sans-serif" font-weight="700" font-size="527" transform="matrix(1 0 0 1 3610.68 2494)">ADOPT<tspan font-size="527" x="1311.41" y="0">-</tspan>A<tspan font-size="527" x="1709.58" y="0">-</tspan>PET<tspan font-family="Comfortaa,Comfortaa_MSFontService,sans-serif" font-size="206" x="0" y="422">ANIMAL</tspan><tspan font-family="Comfortaa,Comfortaa_MSFontService,sans-serif" font-size="206" x="841.042" y="422">ADOPTION CENTER</tspan></text></g></svg>